<svg width="24" height="18" viewBox="0 0 24 18" fill="none" xmlns="http://www.w3.org/2000/svg">
<g clip-path="url(#clip0_92_53395)">
<path d="M2.67832 10.9621H8.7422C10.1619 10.9621 10.9891 10.1535 10.9891 8.75273V2.68879C10.9891 1.28799 10.1619 0.479469 8.7422 0.479469H2.67832C1.26812 0.479469 0.450195 1.27859 0.450195 2.68879V8.75273C0.450195 10.1629 1.26812 10.9621 2.67832 10.9621ZM14.9001 11.0842H21.0863C22.5529 11.0842 23.3896 10.257 23.3896 8.8279V2.62299C23.3896 1.18457 22.5529 0.35725 21.0863 0.35725H14.9001C13.4429 0.35725 12.6062 1.18457 12.6062 2.62299V8.8279C12.6062 10.257 13.4429 11.0842 14.9001 11.0842ZM14.919 9.59879C14.3643 9.59879 14.0916 9.32618 14.0916 8.76212V2.67939C14.0916 2.11531 14.3643 1.84267 14.919 1.84267H21.0674C21.641 1.84267 21.9042 2.11531 21.9042 2.67939V8.76212C21.9042 9.32618 21.641 9.59879 21.0674 9.59879H14.919ZM1.1647 14.4782C0.779244 14.4782 0.450195 14.8166 0.450195 15.2397C0.450195 15.6627 0.779244 15.9918 1.1647 15.9918H4.20135V14.4782H1.1647ZM5.83719 17.496C7.07818 17.496 8.09353 16.4807 8.09353 15.2397C8.09353 13.9893 7.07818 12.9739 5.83719 12.9739C4.59621 12.9739 3.58086 13.9893 3.58086 15.2397C3.58086 16.4807 4.59621 17.496 5.83719 17.496ZM5.83719 16.3396C5.21671 16.3396 4.73723 15.8507 4.73723 15.2303C4.73723 14.6097 5.21671 14.1303 5.83719 14.1303C6.44828 14.1303 6.93716 14.6097 6.93716 15.2303C6.93716 15.8507 6.44828 16.3396 5.83719 16.3396ZM7.33201 14.4782V15.9918H22.6281C23.0512 15.9918 23.3896 15.6627 23.3896 15.2397C23.3896 14.8166 23.0512 14.4782 22.6281 14.4782H7.33201Z" fill="#9EFF00"/>
</g>
<defs>
<clipPath id="clip0_92_53395">
<rect width="22.9394" height="17.496" fill="white" transform="translate(0.450195 -3.8147e-06)"/>
</clipPath>
</defs>
</svg>
