<svg width="150" height="50" viewBox="0 0 150 50" fill="none" xmlns="http://www.w3.org/2000/svg">
<rect x="0.949219" width="50.2348" height="50" rx="9.37716" fill="#9EFF00"/>
<path d="M10.1045 15.5938L26.0669 25.0002V42.9579L10.1045 33.8365L10.1045 15.5938Z" fill="#1A1A1A"/>
<path fill-rule="evenodd" clip-rule="evenodd" d="M27.4754 24.9877V40.531L40.6209 33.0192V17.2412L27.4754 24.9877ZM42.0294 33.8366L26.0669 42.958V25.0002L10.1045 15.5938L26.0669 7.04248L42.0294 15.5938V33.8366ZM39.8825 16.0415L26.0669 8.64031L12.9779 15.6523L26.7605 23.7741L39.8825 16.0415Z" fill="#1A1A1A"/>
<path d="M64.7887 16.6665C67.3144 16.6665 69.2273 18.0408 69.7101 20.2508L67.1844 20.7708C66.9987 19.6008 65.9773 18.8394 64.733 18.8394C63.4701 18.8394 62.7087 19.5451 62.7087 20.3808C62.7087 21.0122 62.9873 21.4579 63.953 21.6436L66.6273 22.1822C68.6516 22.6094 69.8959 23.8165 69.8959 25.7479C69.8959 28.1622 67.9087 29.6665 64.9559 29.6665C62.3559 29.6665 60.0716 28.4594 59.7559 25.9708L62.4116 25.4322C62.7459 26.8436 63.7859 27.4565 65.1973 27.4565C66.6459 27.4565 67.4073 26.7694 67.4073 25.8779C67.4073 25.1722 67.073 24.7451 65.9587 24.5222L63.3216 24.0208C61.8359 23.7051 60.053 22.8879 60.053 20.4551C60.053 18.2265 61.873 16.6665 64.7887 16.6665Z" fill="white"/>
<path d="M81.4403 20.1208V32.5451H78.9889V28.6636C78.2089 29.2951 77.1875 29.6665 75.9246 29.6665C73.566 29.6665 71.3746 27.6794 71.3746 24.7636C71.3746 21.8479 73.566 19.8422 75.9246 19.8422C77.1875 19.8422 78.2089 20.2136 78.9889 20.8636V20.1208H81.4403ZM76.3518 27.5308C77.6703 27.5308 78.9889 26.4722 78.9889 24.7636C78.9889 23.0551 77.6703 21.9779 76.3518 21.9779C74.866 21.9779 73.7518 23.0551 73.7518 24.7636C73.7518 26.4722 74.866 27.5308 76.3518 27.5308Z" fill="white"/>
<path d="M92.7822 20.1208V29.3879H90.3308V28.5522C89.6065 29.2765 88.6408 29.6665 87.4151 29.6665C85.1865 29.6665 83.7008 28.0694 83.7008 25.7665V20.1208H86.1522V25.2465C86.1522 26.5465 86.8951 27.4194 88.028 27.4194C89.4208 27.4194 90.3308 26.4908 90.3308 24.2251V20.1208H92.7822Z" fill="white"/>
<path d="M104.709 20.1208V29.3879H102.258V28.6636C101.478 29.2951 100.456 29.6665 99.1933 29.6665C96.8347 29.6665 94.6433 27.6794 94.6433 24.7636C94.6433 21.8479 96.8347 19.8422 99.1933 19.8422C100.456 19.8422 101.478 20.2136 102.258 20.8636V20.1208H104.709ZM99.6204 27.5308C100.939 27.5308 102.258 26.4722 102.258 24.7636C102.258 23.0551 100.939 21.9779 99.6204 21.9779C98.1347 21.9779 97.0205 23.0551 97.0205 24.7636C97.0205 26.4722 98.1347 27.5308 99.6204 27.5308Z" fill="white"/>
<path d="M113.077 19.9908C113.319 19.9908 113.504 19.9908 113.727 20.0651L113.597 22.4236H113.059C110.793 22.4236 109.753 23.8165 109.753 26.3979V29.3879H107.302V20.1208H109.753V21.8108C110.496 20.7336 111.573 19.9908 113.077 19.9908Z" fill="white"/>
<path d="M123.92 24.5779V25.4136H116.863C117.104 26.7508 118.051 27.5679 119.184 27.5679C119.908 27.5679 120.818 27.4751 121.487 26.3422L123.678 26.8065C122.861 28.7379 121.208 29.6665 119.184 29.6665C116.566 29.6665 114.43 27.6794 114.43 24.7636C114.43 21.8479 116.566 19.8422 119.221 19.8422C121.691 19.8422 123.827 21.7551 123.92 24.5779ZM119.221 21.9779C118.293 21.9779 117.234 22.5351 116.937 23.6865H121.413C121.097 22.4979 120.206 21.9779 119.221 21.9779Z" fill="white"/>
<path d="M136.498 16.9451V23.8165C136.498 27.3079 134.362 29.6665 131.15 29.6665C127.862 29.6665 125.671 27.3079 125.671 23.8165V16.9451H128.197V23.8165C128.197 25.8965 129.367 27.2522 131.15 27.2522C132.84 27.2522 133.972 25.8965 133.972 23.8165V16.9451H136.498Z" fill="white"/>
<path d="M144.501 19.8422C146.86 19.8422 149.051 21.8479 149.051 24.7636C149.051 27.6794 146.86 29.6665 144.501 29.6665C143.238 29.6665 142.217 29.2951 141.437 28.6636V32.5451H138.985V20.1208H141.437V20.8636C142.217 20.2136 143.238 19.8422 144.501 19.8422ZM144.074 27.5308C145.56 27.5308 146.674 26.4722 146.674 24.7636C146.674 23.0551 145.56 21.9779 144.074 21.9779C142.755 21.9779 141.437 23.0551 141.437 24.7636C141.437 26.4722 142.755 27.5308 144.074 27.5308Z" fill="white"/>
</svg>
